
<svg xmlns="http://www.w3.org/2000/svg" version="1.1" xmlns:xlink="http://www.w3.org/1999/xlink" preserveAspectRatio="none" x="0px" y="0px" width="210px" height="630px" viewBox="0 0 210 630">
<defs>
<g id="Layer0_0_FILL">
<path fill="#FFFFFF" stroke="none" d="
M 53.65 367.5
Q 53.65 364.4 51.45 362.2 49.3 360.05 46.2 360.05 43.1 360.05 40.9 362.2 38.75 364.4 38.75 367.5 38.75 370.6 40.9 372.75 43.1 374.95 46.2 374.95 49.3 374.95 51.45 372.75 53.65 370.6 53.65 367.5
M 16.3 388.1
Q 13.75 390.7 13.75 394.35 13.75 398 16.3 400.55 16.674609375 400.924609375 17.05 401.25
L 14.15 415.95 28.85 415.95 26.45 402.25
Q 27.7021484375 401.618359375 28.75 400.55 31.35 398 31.35 394.35 31.35 390.7 28.75 388.1 26.2 385.55 22.55 385.55 18.9 385.55 16.3 388.1
M 50.8 402.25
L 48.3 402.25 40.3 402.25 37.05 402.25 35.7 402.25 35.7 413.7 50.8 413.7 50.8 402.25
M 58.45 386.2
L 58.45 388.85 54.8 388.85 54.8 386.2 48.3 386.2 48.3 402.25 50.8 402.25 50.8 413.7 60.7 413.7 60.7 386.2 58.45 386.2
M 58.45 378.35
L 54.8 378.35 54.8 386.2 54.8 388.85 58.45 388.85 58.45 386.2 58.45 378.35
M 40.3 394.2
L 37.05 394.2 37.05 402.25 40.3 402.25 40.3 394.2
M 58.1 308.1
Q 54.95 311.25 53.3 312.6 52.4 313.35 52 313.65 51.8 317.2 50.2 318.6 43.2 325.1 34.45 325.25 29.65 325.35 25.9 324.85 22.35 324.3 20.05 323.3
L 19.2 322.85
Q 18.4 322.4 18.1 321.7 13.5 321 11.25 313.65 10.75 328.5 26.55 332.15 73.95 342.05 58.1 308.1
M 42.55 304.45
Q 42 304.4 41.5 304.45 39.8 304.7 38.7 305.8 37.9 306.6 37.75 307.6
L 25.1 310.15 19.9 321.4
Q 20.7 321.85 21.2 322.05
L 23.9 322.75
Q 26.15 323.4 28.55 323.2 41.15 322.9 49.65 315.55
L 51.15 313.95
Q 48.85 311.65 45.55 309.5 46.4 308.45 46.25 307.25 46.1 306.35 45.5 305.7 51.75 303.15 55.85 296.55 49.1 300.35 47.9 289.55 46.95 299.25 42.55 304.45 Z"/>
</g>

<path id="Layer0_0_1_STROKES" stroke="#FFFFFF" stroke-width="3" stroke-linejoin="round" stroke-linecap="round" fill="none" d="
M 48.3 386.2
L 54.8 386.2 54.8 378.35 58.45 378.35 58.45 386.2 60.7 386.2 60.7 413.7 50.8 413.7 35.7 413.7 35.7 402.25 37.05 402.25 37.05 394.2 40.3 394.2 40.3 402.25 48.3 402.25 48.3 386.2 Z
M 53.65 367.5
Q 53.65 370.6 51.45 372.75 49.3 374.95 46.2 374.95 43.1 374.95 40.9 372.75 38.75 370.6 38.75 367.5 38.75 364.4 40.9 362.2 43.1 360.05 46.2 360.05 49.3 360.05 51.45 362.2 53.65 364.4 53.65 367.5 Z
M 58.45 386.2
L 58.45 388.85 54.8 388.85 54.8 386.2
M 48.3 402.25
L 50.8 402.25 50.8 413.7
M 40.3 402.25
L 37.05 402.25"/>
</defs>

<g transform="matrix( 1, 0, 0, 1, 0,0) ">
<use xlink:href="#Layer0_0_FILL"/>

<use xlink:href="#Layer0_0_1_STROKES"/>
</g>
</svg>
