
<svg xmlns="http://www.w3.org/2000/svg" version="1.1" xmlns:xlink="http://www.w3.org/1999/xlink" preserveAspectRatio="none" x="0px" y="0px" width="126px" height="150px" viewBox="0 0 126 150">
<defs>
<g id="Layer0_0_FILL">
<path fill="#8D85FC" stroke="none" d="
M 126 39.85
Q 125.95 39.75 125.85 39.6
L 63 3.05 0.35 39.5 0.15 39.6
Q 0.05 39.75 0 39.85
L 0 110.8 63 146.95 126 110.8 126 39.85
M 7.2 51.9
L 58.45 74.45 58.45 133.75 7.2 104.45 7.2 51.9
M 63 65.55
L 10.7 43.8 63 13.95 115.3 43.8 63 65.55
M 67.55 133.75
L 67.55 74.45 118.8 51.9 118.8 104.45 67.55 133.75
M 62.95 39.8
Q 63 39.7 63.05 39.65
L 62.95 39.7 62.95 39.8 Z"/>

<path fill="#FFFFFF" stroke="none" d="
M 67.55 74.45
L 67.55 133.75 118.8 104.45 118.8 51.9 67.55 74.45
M 10.7 43.8
L 63 65.55 115.3 43.8 63 13.95 10.7 43.8
M 63.05 39.65
Q 63 39.7 62.95 39.8
L 62.95 39.7 63.05 39.65
M 58.45 74.45
L 7.2 51.9 7.2 104.45 58.45 133.75 58.45 74.45 Z"/>
</g>
</defs>

<g transform="matrix( 1, 0, 0, 1, 0,0) ">
<use xlink:href="#Layer0_0_FILL"/>
</g>
</svg>
