
<svg xmlns="http://www.w3.org/2000/svg" version="1.1" xmlns:xlink="http://www.w3.org/1999/xlink" preserveAspectRatio="none" x="0px" y="0px" width="126px" height="150px" viewBox="0 0 126 150">
<defs>
<g id="Layer2_0_MEMBER_0_MEMBER_0_MEMBER_0_FILL">
<path fill="#D4D4D4" stroke="none" d="
M 64.25 123.35
L 64 122.95
Q 62.75 121.7 61.15 121.25 59.5 120.8 57.8 121.25 56.3 121.7 55.05 123.1 53.95 124.2 53.65 126.1 53.45 127.2 53.8 128.65 54.15 129.8 55.05 130.95 56.05 131.95 56.7 132.2 57.1 132.85 58 133.6
L 58.05 133.65
Q 58.95 134.85 60.25 135.5 61.5 136.15 63.2 136.15 64.8 136.15 66.15 135.25 67.35 134.5 68.15 133.1 68.9 131.7 68.9 130.15 68.9 128.55 68.15 127.2
L 67.9 126.85 67.8 126.6
Q 67.3 125.5 66.15 124.45
L 64.4 123.35 64.25 123.35 Z"/>
</g>

<g id="Layer2_1_MEMBER_0_MEMBER_0_MEMBER_0_FILL">
<path fill="#000000" stroke="none" d="
M 100.85 42.35
Q 100.7119140625 42.0849609375 100.6 41.8 90.7474609375 40.3474609375 85.75 40.1 79.1 39.85 70.95 40.75 65.75 41.35 56.25 42.95 40.65 45.65 32.1 47.85 25.557421875 49.5494140625 21.3 51.6 19.6916015625 58.449609375 19.1 66.65
L 19.1 70.65
Q 19.2 72 19.1 73.05 18.95 74.55 18.35 75.35
L 18.25 75.55
Q 15.4 92.55 7.3 99.3 11.5 100.2 17.75 96.1 17 99.25 7.25 106.3 13.4 106.7 22.6 103.2 23.5 117.5 33.9 128.8 33.9 126.45 34.05 124.8
L 34.05 124.95
Q 35.9 127.7 37.95 129.2 39.5 130.35 41.45 131.2 47.35 136.9 54.7 145.3 58.55 149.15 64.3 150 69.95 149.1 73.9 145.3 81.15 136.9 87.15 131.2 88.75 130.5 90.65 129.2 92.9 127.15 94.55 125.2
L 93.55 129.95
Q 98.35 126.75 100.55 121.8
L 101.55 125.45
Q 105.25 120.4 110.4 105.8 112.65 92.95 109.05 79.7 112.5 84.95 118.8 87.45 113.1 76.15 109.4 59.4 109.2998046875 53.887109375 107.8 47.65 106.9869140625 47.124609375 106.8 47 105.15 46.3 104.35 45.85 102.15 44.7 100.85 42.35
M 93.8 53.45
Q 96.15 52.4 96.8 54.1
L 97.4 72.1 97.5 72.55
Q 97.8 74 97.4 75.6
L 97.4 79.2
Q 97.35 89.85 93.4 99.3 91.1 109.1 90.4 119.8
L 88.05 125.6 87.75 126.2 87.65 126.3
Q 86.6 128.1 85.15 129.1 81.45 132.85 78.05 135.55 71.05 145.35 64.3 147 57.45 145.35 47.25 132.95 43.8 129.85 40.5 125.8 39 124.55 38.2 122.55 37.9 121.8 37.75 120.95 36.9 118.85 36.75 116.35 36.35 105.2 35.5 96.95 34 93.85 33.25 90.55 32.35 84.25 32.5 78.7 32.05 77.35 32.5 75.8
L 32.5 75.7
Q 32.35 74.75 32.7 73.6
L 33.25 68.55
Q 52.95 66.35 69.55 55.35
L 61.7 64.85 63.2 64.6
Q 64.3 64.25 65.25 64.2
L 65.75 64.15
Q 73.1 62.8 79.65 59.8
L 93.8 53.45 Z"/>
</g>

<g id="Layer2_2_MEMBER_0_MEMBER_0_MEMBER_0_FILL">
<path fill="#D4D4D4" stroke="none" d="
M 96.8 45.75
Q 96.15 44.05 93.8 45.1
L 79.65 51.45
Q 73.1 54.45 65.75 55.8
L 65.25 55.85
Q 64.3 55.9 63.2 56.25
L 61.7 56.5 69.55 47
Q 52.95 58 33.25 60.2
L 32.7 65.25
Q 32.35 66.4 32.5 67.35
L 32.5 67.45
Q 32.05 69 32.5 70.35 32.35 75.9 33.25 82.2 34 85.5 35.5 88.6 36.35 96.85 36.75 108 36.9 110.5 37.75 112.6 37.9 113.45 38.2 114.2 39 116.2 40.5 117.45 43.8 121.5 47.25 124.6 57.45 137 64.3 138.65 71.05 137 78.05 127.2 81.45 124.5 85.15 120.75 86.6 119.75 87.65 117.95
L 87.75 117.85 88.05 117.25 90.4 111.45
Q 91.1 100.75 93.4 90.95 97.35 81.5 97.4 70.85
L 97.4 67.25
Q 97.8 65.65 97.5 64.2
L 97.4 63.75 96.8 45.75 Z"/>
</g>

<g id="Layer1_0_FILL">
<path fill="#000000" stroke="none" d="
M 26 122.55
Q 25.95 111.6 29.45 101.55
L 18.95 101.55
Q 17.15 111.4 26 122.55
M 66.45 53.65
L 47 60.85
Q 41.95 65.35 36.1 73.75 58.1 69.05 66.45 53.65
M 103.6 48.3
L 84.15 55.5
Q 79.1 60 73.25 68.4 95.25 63.7 103.6 48.3
M 110.65 93.25
L 100.8 98.6
Q 106.8 107.4 109.55 118.05 115.25 104.95 110.65 93.25 Z"/>
</g>

<g id="Layer0_0_FILL">
<path fill="#449BBA" stroke="none" d="
M 94.9 67.2
L 100.5 67.2
Q 100.275390625 62.875 98.7 58.55
L 92.15 58.55
Q 94.3359375 62.694921875 94.9 67.2 Z"/>
</g>

<g id="Layer0_1_FILL">
<path fill="#449BBA" stroke="none" d="
M 40.5 128.65
L 40.5 123.25
Q 34.993359375 117.7337890625 34.45 108.4
L 29.8 107.15
Q 30.2564453125 124.203125 40.5 128.65 Z"/>
</g>

<g id="Layer0_2_FILL">
<path fill="#C17330" stroke="none" d="
M 51.5 123.2
Q 49.2171875 121.2412109375 45.7 120.9 42.18125 120.5578125 40.15 122 38.1662109375 123.4953125 38.05 125.45 37.938671875 127.4076171875 40.25 129.3 42.5548828125 131.1822265625 45.8 131.35 49.043359375 131.519921875 51.45 130.75 53.8650390625 129.98671875 53.85 127.6 53.826171875 125.21171875 51.5 123.2
M 46.65 122.55
Q 47.651953125 122.455859375 49.5 123.45 51.39921875 124.480859375 51.3 126 51.2037109375 127.5880859375 48.75 126.4 46.3396484375 125.2541015625 45.5 124.25 44.7087890625 123.298828125 45.2 123 45.7 122.7037109375 46.65 122.55 Z"/>

<path fill="#D79844" stroke="none" d="
M 49.5 123.45
Q 47.651953125 122.455859375 46.65 122.55 45.7 122.7037109375 45.2 123 44.7087890625 123.298828125 45.5 124.25 46.3396484375 125.2541015625 48.75 126.4 51.2037109375 127.5880859375 51.3 126 51.39921875 124.480859375 49.5 123.45 Z"/>
</g>

<g id="Layer0_3_FILL">
<path fill="#035470" stroke="none" d="
M 34.9 106.65
L 34.25 100.25 28.15 100.25
Q 27.7357421875 103.825 28.15 107.4 28.15 107.54765625 28.15 107.7 28.15 108.9 29.15 109.75 30.2 110.65 31.65 110.65 33.1 110.65 34.1 109.75 35.15 108.9 35.15 107.7 35.15 107.4681640625 35.1 107.25 35.130078125 107.2736328125 34.85 105.55
L 35.05 107
Q 35.002734375 106.8453125 34.9 106.65 Z"/>
</g>

<g id="Layer0_4_FILL">
<path fill="#449BBA" stroke="none" d="
M 26.05 68.65
Q 25.9 69.55 25.8 70.45 24.1 84.5 27.5 98.3 27.8 99.6 28.15 100.9 28.65 101 29.15 101.05 32.6 101.45 36.05 100.45 35.65 99.4 35.25 98.3 34.4 95.8 33.8 93 33.05 89.05 32.6 85.7 31.8 78.8 32.1 70.45 32.1 68.9 32.2 67.3
L 26.05 68.45
Q 26.05 68.55 26.05 68.65 Z"/>

<path fill="#237694" stroke="none" d="
M 25.8 70.45
Q 25.9 69.55 26.05 68.65
L 17.1 70.6
Q 16.45 71.25 15.95 71.95 14.45 73.95 13.75 76.7 13.05 79.4 13 82.75 12.95 86.1 14.3 90.3 15.6 94.45 19 97.55 19.5 97.95 19.9 98.3 20.95 99.25 21.3 99.4 21.7 99.55 25.25 100.55 26.9 101 29.15 101.05 28.65 101 28.15 100.9 27.8 99.6 27.5 98.3 24.1 84.5 25.8 70.45
M 111.7 71.85
Q 111.2 71.15 110.55 70.5 105.8 66.9 101 65.85 103.75 83.5 100.15 98.2 99.85 99.5 99.5 100.8 99 100.9 98.5 100.95 100.75 100.9 102.4 100.45 105.95 99.45 106.35 99.3 106.7 99.15 107.75 98.2 108.15 97.85 108.65 97.45 112.05 94.35 113.35 90.2 114.7 86 114.65 82.65 114.6 79.3 113.9 76.6 113.2 73.85 111.7 71.85 Z"/>

<path fill="#035470" stroke="none" d="
M 101 65.85
L 95.15 64.85
Q 96 77.4 95.05 85.6 94.6 88.95 93.85 92.9 93.25 95.7 92.4 98.2 92 99.3 91.6 100.35 95.05 101.35 98.5 100.95 99 100.9 99.5 100.8 99.85 99.5 100.15 98.2 103.75 83.5 101 65.85 Z"/>
</g>

<g id="Layer0_5_FILL">
<path fill="#237694" stroke="none" d="
M 105.8 46.7
Q 105.65 24.55 81.7 14 72.9494140625 9.853125 61.85 10.6 49.6 12.425390625 37.7 21.05 22.140234375 29.1041015625 19.85 38.6 33.3296875 38.765625 39.7 38.25
L 39.7 38.3 105.8 46.7 Z"/>
</g>

<g id="Layer0_6_FILL">
<path fill="#C17330" stroke="none" d="
M 76.1 11.8
Q 75.9408203125 11.6826171875 75.75 11.55 75.482421875 11.967578125 75.1 12.35 73.55 13.9 71.4 13.9 69.25 13.9 67.7 12.35 66.15 10.8 66.15 8.65 66.15 8.4525390625 66.15 8.25 64.701171875 9.062890625 64 10.05 63.1482421875 11.248828125 63.15 11.5 63.200390625 11.800390625 63.95 13.2 64.7447265625 14.599609375 66.5 15.8 68.3154296875 17.001171875 70.95 17.2 73.634375 17.398828125 74.2 17.1 74.756640625 16.8501953125 75.95 16.25 77.1396484375 15.6498046875 77.5 14.4 77.9087890625 13.2 76.1 11.8 Z"/>

<path fill="#D79844" stroke="none" d="
M 76.65 8.65
Q 76.65 6.5 75.1 4.95 73.55 3.4 71.4 3.4 69.25 3.4 67.7 4.95 66.2923828125 6.3576171875 66.15 8.25 66.15 8.4525390625 66.15 8.65 66.15 10.8 67.7 12.35 69.25 13.9 71.4 13.9 73.55 13.9 75.1 12.35 75.482421875 11.967578125 75.75 11.55 76.65 10.2697265625 76.65 8.65 Z"/>
</g>

<g id="Layer0_7_FILL">
<path fill="#449BBA" stroke="none" d="
M 105.15 46.45
Q 105.7177734375 31.35234375 91.25 19.55 53.47421875 39.5775390625 19.1 38.25 15.2796875 49.278125 15.4 59.7 51.7466796875 61.0173828125 105.15 46.45 Z"/>
</g>

<g id="Layer0_8_FILL">
<path fill="#C17330" stroke="none" d="
M 93.85 21.9
Q 90.386328125 18.4158203125 85.6 15.95 29.207421875 38.0828125 19.65 36.95 17.5916015625 41.275 17.3 45.65 56.54765625 37.7451171875 93.85 21.9 Z"/>
</g>

<g id="Layer0_9_FILL">
<path fill="#035470" stroke="none" d="
M 105.3 46.35
Q 101.7818359375 46.1859375 99.45 46.05 56.4859375 41.594140625 18.3 58.3
L 18.35 58.35
Q 17.46796875 58.489453125 16.35 58.8 10.4474609375 60.6392578125 10.7 63.6 11.0076171875 66.61640625 11.25 67.75 11.54453125 68.8927734375 13.05 70.35 14.5966796875 71.8041015625 16.35 71.7 18.11328125 71.5904296875 23.35 70.1
L 26.85 69.15
Q 64.4359375 59.5572265625 109.3 63.85 112.00078125 59.8748046875 112.15 54.45 112.1484375 53.8109375 112.05 51.55 111.9435546875 49.2853515625 110.35 47.9 108.8134765625 46.5154296875 105.3 46.35 Z"/>
</g>
</defs>

<g transform="matrix( 1, 0, 0, 1, 0,7.4) ">
<use xlink:href="#Layer2_0_MEMBER_0_MEMBER_0_MEMBER_0_FILL"/>
</g>

<g transform="matrix( 1, 0, 0, 1, 0,-0.95) ">
<use xlink:href="#Layer2_1_MEMBER_0_MEMBER_0_MEMBER_0_FILL"/>
</g>

<g transform="matrix( 1, 0, 0, 1, 0,7.4) ">
<use xlink:href="#Layer2_2_MEMBER_0_MEMBER_0_MEMBER_0_FILL"/>
</g>

<g transform="matrix( 1, 0, 0, 1, 0,0) ">
<use xlink:href="#Layer1_0_FILL"/>
</g>

<g transform="matrix( 1, 0, 0, 1, 1.7,-0.65) ">
<use xlink:href="#Layer0_0_FILL"/>
</g>

<g transform="matrix( 1, 0, 0, 1, 1.7,-0.65) ">
<use xlink:href="#Layer0_1_FILL"/>
</g>

<g transform="matrix( 1, 0, 0, 1, 1.7,-0.65) ">
<use xlink:href="#Layer0_2_FILL"/>
</g>

<g transform="matrix( 1, 0, 0, 1, 1.7,-0.65) ">
<use xlink:href="#Layer0_3_FILL"/>
</g>

<g transform="matrix( 1, 0, 0, 1, 1.05,-0.25) ">
<use xlink:href="#Layer0_4_FILL"/>
</g>

<g transform="matrix( 1, 0, 0, 1, 1.7,-0.65) ">
<use xlink:href="#Layer0_5_FILL"/>
</g>

<g transform="matrix( 1, 0, 0, 1, 1.7,-0.65) ">
<use xlink:href="#Layer0_6_FILL"/>
</g>

<g transform="matrix( 1, 0, 0, 1, 1.7,-0.65) ">
<use xlink:href="#Layer0_7_FILL"/>
</g>

<g transform="matrix( 1, 0, 0, 1, 1.7,-0.65) ">
<use xlink:href="#Layer0_8_FILL"/>
</g>

<g transform="matrix( 1, 0, 0, 1, 1.7,-0.65) ">
<use xlink:href="#Layer0_9_FILL"/>
</g>
</svg>
