
<svg xmlns="http://www.w3.org/2000/svg" version="1.1" xmlns:xlink="http://www.w3.org/1999/xlink" preserveAspectRatio="none" x="0px" y="0px" width="370px" height="80px" viewBox="0 0 370 80">
<defs>
<g id="Layer1_0_FILL">
<path fill="#FFFFFF" stroke="none" d="
M 370 80
L 370 0 0 0 0 80 370 80
M 360.25 10.3
L 360.25 70.55 9 70.55 9 10.3 360.25 10.3 Z"/>
</g>

<g id="Layer0_0_FILL">
<path fill="#000000" stroke="none" d="
M 45.7 27.55
L 45.7 19.3 30.5 19.3
Q 22.1 19.3 20.7 19.65 17.15 20.1 12.85 22.65 10.45 24.1 7.75 27.15 3 32.95 3 40.55 3 45 4.65 48.95 8 56.5 15.75 59.95 19.3 61.75 26.7 61.75
L 44.75 61.75 45.7 61.55 45.7 53.5 25.85 53.5
Q 22.5 53.5 20.85 53 16.25 51.35 14.1 48.25 11.5 44.4 11.5 40.7 11.5 36.95 13.8 33.3 15.05 31.25 16.85 30.15 19.95 27.55 25.85 27.55
L 45.7 27.55
M 92.8 40.45
Q 92.8 33.3 88.4 27.4 81.45 19.3 71.65 19.3
L 71.4 19.3
Q 69.15 19.3 67.8 19.65 63.55 20.1 58.05 23.9 50.15 30.75 50.15 40.35
L 50.15 40.7
Q 50.15 44.2 51.25 47.55 52.2 50.4 54.7 53.8 61.45 61.75 71.3 61.75
L 71.65 61.75
Q 78.8 61.75 84.65 57.3 92.8 50.55 92.8 40.75
L 92.8 40.45
M 84.4 40.6
Q 84.2 43.3 83.8 44.35 82.45 48.5 78.8 51.2 75.3 53.5 71.9 53.5
L 71.05 53.5
Q 66.8 53.5 62.95 50.25 58.65 46.05 58.65 40.5 58.65 38.35 59.45 36.1 59.9 34.5 61.75 32.1 65.95 27.5 71.5 27.5 76.1 27.5 80.15 31 84.4 35.25 84.4 40.6
M 105.8 19.3
L 97.25 19.3 97.25 38.45
Q 97.25 44.3 98.3 47.1 99.5 51.1 103.05 55.05 105.55 57.55 107.05 58.35 111.95 61.75 120.05 61.75
L 139.9 61.75 139.9 53.5 119.75 53.5
Q 115.1 53.5 112.25 51.7 105.8 47.8 105.8 39.45
L 105.8 19.3
M 177.3 22.65
Q 172.85 20.1 169.4 19.65 168 19.3 159.6 19.3
L 144.35 19.3 144.35 27.55 164.3 27.55
Q 170.15 27.55 173.25 30.15 174.95 31.25 176.35 33.3 178.6 37 178.6 40.7 178.6 44.4 176 48.25 173.85 51.35 169.25 53 167.55 53.5 164.3 53.5
L 144.35 53.5 144.35 61.55 145.35 61.75 163.35 61.75
Q 170.75 61.75 174.35 59.95 182.1 56.45 185.35 48.95 187.1 44.9 187.1 40.55 187.1 33.05 182.35 27.15 179.7 24.1 177.3 22.65
M 213.75 44.6
L 213.75 36.5 191.6 36.5 191.6 44.6 213.75 44.6
M 222.35 21.5
Q 218.1 19.3 211.4 19.3
L 191.6 19.3 191.6 27.65 212.25 27.65
Q 217.35 27.65 220.6 30.25 225.75 34.75 225.75 40.3 225.75 42.35 224.9 45 222.95 50.2 218.25 52.25 215.95 53.5 211.05 53.5
L 191.55 53.5 191.55 60.7
Q 191.55 61.6 192.35 61.75
L 211.6 61.75
Q 214.75 61.75 217 61.35 222.3 60.3 226.3 57.2 234.25 50.3 234.25 40.55 234.25 30.8 226.4 24.15 224.35 22.6 222.35 21.5
M 260.25 19.3
L 259.95 19.3
Q 257.7 19.3 256.35 19.65 252.1 20.1 246.6 23.9 238.65 30.8 238.65 40.35
L 238.65 40.7
Q 238.65 44.1 239.85 47.55 240.7 50.35 243.25 53.8 250 61.75 259.85 61.75
L 260.2 61.75
Q 267.3 61.75 273.25 57.3 281.35 50.55 281.35 40.75
L 281.35 40.45
Q 281.35 33.3 276.95 27.4 270 19.3 260.25 19.3
M 250.3 32.1
Q 254.5 27.5 260 27.5 264.65 27.5 268.7 31 272.95 35.25 272.95 40.6 272.75 43.3 272.35 44.35 271 48.5 267.35 51.2 263.85 53.5 260.45 53.5
L 259.6 53.5
Q 255.35 53.5 251.5 50.25 247.15 46 247.15 40.5 247.15 38.5 248 36.1 248.45 34.5 250.3 32.1
M 285.75 19.3
L 302.5 40.55 285.75 61.75 295.35 61.75 307.7 47 320 61.75 329.6 61.75 312.85 40.55 329.7 19.3 320 19.3 307.7 34.05 295.35 19.3 285.75 19.3
M 365.5 46.8
L 365.5 19.3 338 19.3 365.5 46.8 Z"/>
</g>
</defs>

<g transform="matrix( 1, 0, 0, 1, 0,0) ">
<use xlink:href="#Layer1_0_FILL"/>
</g>

<g transform="matrix( 1, 0, 0, 1, 0,0) ">
<use xlink:href="#Layer0_0_FILL"/>
</g>
</svg>
