
<svg xmlns="http://www.w3.org/2000/svg" version="1.1" xmlns:xlink="http://www.w3.org/1999/xlink" preserveAspectRatio="none" x="0px" y="0px" width="370px" height="82px" viewBox="0 0 370 82">
<defs>
<g id="Layer1_0_FILL">
<path fill="#58AFD2" stroke="none" d="
M 252.35 52.85
Q 253.35 46.6 250.2 43.7 246.9 40.65 239.05 41.1
L 233.65 41.1 229.6 64.6 235.05 64.6
Q 250.2 65.45 252.35 52.85
M 245.5 47.75
Q 246.85 49.35 246.45 52.4 245.6 58.7 238.35 59.55 237.2 59.7 235.9 59.7
L 238.25 46
Q 243.6 45.45 245.5 47.75
M 258.55 59.8
L 259.35 55.2 265.05 55.2 265.9 50.55 255.3 50.55 252.5 64.95 269.85 64.95 270.6 59.8 258.55 59.8
M 273.75 41.1
L 256.75 41.1 256 46 272.9 46 273.75 41.1
M 281.65 41.35
L 276.3 41.35 272.3 65.15 288.45 65.15 289.4 59.7 278.65 59.7 281.65 41.35
M 314.5 41.1
L 309.2 41.1 306.1 57.25
Q 303.6 60.5 301.25 60.05 300.95 60 300.7 59.9 298.05 59.15 297.95 56.6
L 300.15 40.95 294.95 40.95 292.5 56.6
Q 291.9 62.15 296.4 64.15 298.15 64.85 300.65 65.1 308.25 65.2 311.65 57.55
L 314.5 41.1
M 349.25 55.45
L 350.1 50.8 339.5 50.8 336.7 65.2 354.05 65.2 354.8 60.05 342.75 60.05 343.55 55.45 349.25 55.45
M 357.8 70.4
L 357.8 67.3 230.65 67.3 230.65 70.4 357.8 70.4
M 338.3 40.9
L 332.2 40.9 326.55 48.3 323.4 41.2 317.2 41.2 322.7 52.6 312.6 65.1 318.7 65.1 325 57.1 328.7 65.3 334.9 65.3 329.1 53.1 338.3 40.9
M 357.95 41.35
L 340.95 41.35 340.2 46.25 357.1 46.25 357.95 41.35
M 360.1 36.45
L 360.1 33.35 232.95 33.35 232.95 36.45 360.1 36.45 Z"/>
</g>

<g id="Layer0_0_FILL">
<path fill="#EEEEEE" stroke="none" d="
M 29.3 12.4
Q 28.55 12.35 28 12.75 27.45 13.2 27.3 13.9
L 15.7 59.4
Q 15.5 60.15 15.85 60.85 16.3 61.5 17.05 61.5
L 19.05 61.5
Q 19.75 61.55 20.35 61.1 20.9 60.65 21.05 59.95
L 32.6 14.55
Q 32.85 13.7 32.45 13 32.05 12.4 31.3 12.4
L 29.3 12.4 Z"/>
</g>

<g id="Layer0_1_FILL">
<path fill="#EEEEEE" stroke="none" d="
M 57.75 37.05
Q 58.35 36.3 59.4 36.15 60.1 36.15 60.1 37 59.95 38.65 59.3 40.65
L 48.55 75.85
Q 47.9 78.3 49.35 78.3
L 54.75 78.3
Q 55.4 78.35 55.85 77.9 56.35 77.5 56.4 76.85
L 67.85 35.05
Q 69 31.3 68.45 29.3 68.15 27.8 66.95 26.75 65.85 26.2 64.35 26.2
L 62.2 26.2
Q 59.65 26.2 56.05 29.05 51.9 32.55 49.05 37.45
L 38.4 55.15 45.95 29.2
Q 46.7 26.2 44.2 26.2
L 39.85 26.2
Q 38.25 26.2 37.7 28.9
L 25.2 75.6
Q 24.9 76.6 25.35 77.45 25.8 78.25 26.4 78.25
L 29.4 78.25
Q 31.1 78.4 32 76.9 35.4 70.85 43.4 58.75 47.6 52.35 50.4 47.75 52.5 44.25 55.1 40.45 56.45 38.4 57.75 37.05 Z"/>
</g>

<g id="Layer0_2_FILL">
<path fill="#EEEEEE" stroke="none" d="
M 97.55 37.65
Q 98.9 39.15 100.7 37.15
L 102.4 35.15
Q 103.6 33.7 102 31.95
L 102 31.9
Q 97.05 26.3 92.55 25.9 87.8 25.45 84.25 28.65 79.55 32.75 76.35 37.95 72.4 43.9 69.5 55.6 66.75 67.15 69.6 73.4 70.6 75.5 74.75 77.55 79 79.7 81 79.1 83.1 78.45 86.65 75.35 95.5 68.3 92.2 66.3
L 90.65 65.3
Q 88.45 63.95 87.35 65.5 84.4 69.3 80.5 71.65 79 71.75 77.9 70.85 76.4 70.15 76 68.55 75.1 63.45 76.9 55.85 78.85 47.85 82.8 41 86.95 33.8 90.6 33.15 92.75 32.65 96.45 36.4
L 97.55 37.65 Z"/>
</g>

<g id="Layer0_3_FILL">
<path fill="#EEEEEE" stroke="none" d="
M 134.05 28.15
Q 134.95 25.9 132 25.9
L 131 25.9
Q 128.65 25.65 126.5 26.75 124.15 28.75 122.45 31.15 119.2 35.3 116.45 39.95
L 119.35 28.35
Q 119.65 27.1 119.2 26.65 118.35 26.05 117.4 26.2
L 114.25 26.2
Q 113.25 26.1 112.4 26.65 111.55 27.25 111.35 28.25
L 98.85 75.95
Q 98.15 78.3 101.1 78.3
L 104.1 78.3
Q 105.2 78.4 106.1 77.75 107 77.1 107.25 76.05
L 115.1 45.6
Q 117.3 49.6 118.1 50.25 119.25 50.95 120.65 50.6
L 124.55 49.9
Q 125.3 49.75 125.6 49.1 125.85 48.45 125.25 48 122.8 46.1 122.65 43 122.65 41.7 126.1 37.35 128.5 34.15 131.5 31.15 133.1 29.95 134.05 28.15 Z"/>
</g>

<g id="Layer0_4_FILL">
<path fill="#EEEEEE" stroke="none" d="
M 160 37.45
Q 160 29.2 155.85 27.4 151.95 25.65 148 26.8 144.35 27.8 141.7 30.25 134.45 37.1 130.5 50.55 126.45 64.05 127.95 71.8 129.15 77.6 136.45 79.5 139.8 80.1 144.9 75.95 150.2 71.65 152.15 68 152.35 67.3 152.1 66.7 151.85 66.05 151.25 65.7
L 149.3 64.5
Q 148.25 63.75 147.3 64.7 141.7 71.05 138 72.45 133.85 71.6 135.25 64 145.35 60.55 152.75 53 159.95 45.75 160 37.45
M 150.15 33.65
Q 152.55 33.65 152.55 37.8 152.45 42.3 150.3 45.95 148.2 49.8 144.65 52.65 140.9 55.65 136.5 57.45 138.3 49.4 141.95 41.35 145.5 33.65 150.15 33.65 Z"/>
</g>

<g id="Layer0_5_FILL">
<path fill="#EEEEEE" stroke="none" d="
M 205.3 3
Q 206 0.45 202.85 0.45
L 200 0.45
Q 198.85 0.35 197.9 1 196.95 1.65 196.65 2.75
L 189.8 28.25
Q 186.8 26.4 183.35 26.4 177.5 26.15 173.35 30.3 169.3 34.3 164.65 47.1 160.1 59.95 160.15 67.95 160.4 72.3 163.55 75.25 166.85 78.6 168.85 78.6
L 169.05 78.6
Q 170.65 78.6 172.9 76.7 175.4 74.7 177.4 71.95
L 179.4 77.6 179.45 77.8
Q 179.65 78.4 180.2 78.65 180.75 78.95 181.3 78.7 185.8 77.8 189.75 74.9 194.05 71.4 197.5 67.25 198.65 65.8 197 64.7
L 194.55 63.05
Q 193.05 62.1 192 63.75 189.3 67.65 185.8 70.65
L 205.3 3
M 173.15 44.55
Q 176.2 36.1 179.7 33.6 183.2 31.15 188.25 34
L 188.2 34
Q 184 49.3 180.2 57.45 176.4 65.7 171.55 68.7 169.15 70.75 168.2 68.3 167.1 65.75 168.6 59.4 170.25 52.15 173.15 44.55 Z"/>
</g>

<g id="Layer0_6_FILL">
<path fill="#EEEEEE" stroke="none" d="
M 216.8 26.2
L 213.4 26.2
Q 212.4 26.1 211.55 26.7 210.75 27.3 210.55 28.25
L 198 75.95
Q 197.4 78.3 200.3 78.3
L 203.3 78.3
Q 204.4 78.4 205.25 77.8 206.15 77.15 206.35 76.1
L 218.8 28.4
Q 219.1 27.15 218.6 26.65 217.85 26.1 216.8 26.2
M 216.85 10.6
Q 214.7 10.5 213.3 12.1 211.85 13.55 211.85 15.6 211.85 17.6 213.25 19.1 214.45 20.55 216.35 20.55
L 217.15 20.55
Q 219.35 20.65 220.9 19.15 222.5 17.75 222.4 15.7 222.5 13.7 221 12.15 219.75 10.7 217.9 10.6
L 216.85 10.6 Z"/>
</g>

<g id="Layer0_7_FILL">
<path fill="#EEEEEE" stroke="none" d="
M 255.6 35.45
Q 254.95 33.05 253.3 31 251.9 29.15 249.85 27.65 248.7 26.7 247.3 26.5
L 247.1 26.5
Q 245.4 26.5 242.6 29 239.6 31.85 237.6 35.25
L 236.1 37.8 245.05 2.8
Q 245.65 0.45 242.85 0.45
L 240.5 0.45
Q 239.4 0.4 238.55 1 237.7 1.65 237.45 2.75
L 218.6 75
Q 218.1 78.3 221.6 78.3
L 223.35 78.3
Q 225.25 78.4 226.05 76.7 229.05 78.7 232.6 78.7
L 232.65 78.75
Q 238.45 78.9 242.6 75 246.5 71.35 250.5 60.65 253.65 52.5 255.3 43.85 256.3 37.8 255.6 35.45
M 248.45 38.2
Q 248.45 41.75 247.6 45.3 245.9 52.95 243.2 59.8 239.75 68.95 236.1 71.6 232.45 74.2 227.45 71.2
L 227.75 70.15
Q 230.5 60.15 234.05 50.7 236.5 44.2 240.9 39.05 244.85 34.65 246.6 35.5 248.35 36.35 248.45 38.2 Z"/>
</g>

<g id="Layer0_8_FILL">
<path fill="#EEEEEE" stroke="none" d="
M 290.3 41.9
Q 290.7 33.8 288.55 30.55 287.4 28.25 285.25 26.9 283.1 25.5 280.55 25.35 270.6 25.2 264.15 37.45 257.7 49.6 257.25 63.45 256.95 72.3 261.2 76.3 263.6 78.9 267.25 79.15 276.45 79.55 282 70 290 57 290.3 41.9
M 280.35 33.15
Q 281.2 33.75 281.5 34.75 282.2 36.85 282.1 42.85 281.85 56.2 274.85 67.55 271.85 72.1 268.95 72 265.6 71.7 265.75 62.4 265.9 51.05 270.65 40.95 272.05 37.65 274.35 34.8 275.85 32.7 278.5 32.6 279.5 32.55 280.35 33.15 Z"/>
</g>

<g id="Layer0_9_FILL">
<path fill="#EEEEEE" stroke="none" d="
M 328.3 29.9
Q 330.55 26.2 327.8 26.2
L 324.3 26.2
Q 322.55 26.05 321.55 27.5 314.75 39.1 310.15 45.85 308.1 37.4 305.55 28.65 305.35 27.55 304.55 26.9 303.75 26.2 302.65 26.2
L 299.9 26.2
Q 297.05 26.2 298.3 29.95 301.75 41.45 304.3 52.15 298.45 60.25 285.75 75.75 284.95 76.5 285.5 77.45 286.15 78.45 287.35 78.3
L 290.3 78.3
Q 291.2 78.4 291.9 77.9
L 292.6 77.6
Q 293 77.35 293.2 77.05
L 306.25 60.85
Q 307.9 68.3 308.95 75.45 309.1 76.75 309.85 78.2 310.65 78.9 311.65 78.6
L 314.7 78.3
Q 316.65 78.25 316.35 76.15 314.5 64.55 312.15 54.1 321.05 42.15 328.3 29.9 Z"/>
</g>

<g id="Layer0_10_FILL">
<path fill="#8E8E8E" stroke="none" d="
M 351.55 5.85
Q 351.55 5.6 351.3 5.6
L 351.25 5.6 351.25 5.55 338.65 7.25
Q 338.35 7.25 338.45 7.5
L 338.35 16.3 337.7 16.25
Q 336.5 16.25 335.65 17.1 334.8 17.95 334.75 19.15 334.7 20.4 335.55 21.25 336.4 22.1 337.6 22.15
L 337.65 22.15
Q 338.85 22.1 339.7 21.3 340.55 20.45 340.6 19.25
L 340.65 11.05 349.2 9.95 349.2 14.6 348.5 14.55
Q 347.3 14.55 346.45 15.4 345.6 16.25 345.6 17.5 345.6 18.7 346.45 19.55 347.3 20.45 348.5 20.4 349.7 20.4 350.55 19.6 351.4 18.75 351.45 17.55
L 351.55 5.85 Z"/>
</g>

<g id="Layer0_11_FILL">
<path fill="#666666" stroke="none" d="
M 367.55 8.7
L 367.6 0.8 367.5 0.6 367.5 0.5 367.3 0.45 358.8 1.6
Q 358.6 1.6 358.6 1.85
L 358.6 7.7 358.2 7.7
Q 357.35 7.7 356.75 8.3 356.15 8.9 356.15 9.75 356.15 10.6 356.75 11.25 357.35 11.85 358.2 11.85 359.05 11.85 359.65 11.25 360.25 10.65 360.25 9.8
L 360.25 4.3 365.85 3.6 365.85 6.6 365.5 6.6
Q 364.65 6.6 364 7.2 363.4 7.85 363.4 8.7 363.4 9.55 364 10.15 364.65 10.75 365.5 10.75 366.3 10.75 366.9 10.15 367.5 9.55 367.55 8.7 Z"/>
</g>
</defs>

<g transform="matrix( 1, 0, 0, 1, 0,0) ">
<use xlink:href="#Layer1_0_FILL"/>
</g>

<g transform="matrix( 1, 0, 0, 1, 0,0) ">
<use xlink:href="#Layer0_0_FILL"/>
</g>

<g transform="matrix( 0.6603546142578125, 0, 0, 0.6603546142578125, 13.55,9.75) ">
<use xlink:href="#Layer0_1_FILL"/>
</g>

<g transform="matrix( 0.6603546142578125, 0, 0, 0.6603546142578125, 13.55,9.75) ">
<use xlink:href="#Layer0_2_FILL"/>
</g>

<g transform="matrix( 0.6603546142578125, 0, 0, 0.6603546142578125, 13.55,9.75) ">
<use xlink:href="#Layer0_3_FILL"/>
</g>

<g transform="matrix( 0.6603546142578125, 0, 0, 0.6603546142578125, 13.55,9.75) ">
<use xlink:href="#Layer0_4_FILL"/>
</g>

<g transform="matrix( 0.6603546142578125, 0, 0, 0.6603546142578125, 13.55,9.75) ">
<use xlink:href="#Layer0_5_FILL"/>
</g>

<g transform="matrix( 0.6603546142578125, 0, 0, 0.6603546142578125, 13.55,9.75) ">
<use xlink:href="#Layer0_6_FILL"/>
</g>

<g transform="matrix( 0.6603546142578125, 0, 0, 0.6603546142578125, 13.55,9.75) ">
<use xlink:href="#Layer0_7_FILL"/>
</g>

<g transform="matrix( 0.6603546142578125, 0, 0, 0.6603546142578125, 13.55,9.75) ">
<use xlink:href="#Layer0_8_FILL"/>
</g>

<g transform="matrix( 0.6603546142578125, 0, 0, 0.6603546142578125, 13.55,9.75) ">
<use xlink:href="#Layer0_9_FILL"/>
</g>

<g transform="matrix( 0.6603546142578125, 0, 0, 0.6603546142578125, 13.55,9.75) ">
<use xlink:href="#Layer0_10_FILL"/>
</g>

<g transform="matrix( 0.6603546142578125, 0, 0, 0.6603546142578125, 13.55,9.75) ">
<use xlink:href="#Layer0_11_FILL"/>
</g>
</svg>
